<?xml version="1.0" standalone="no"?>
<!DOCTYPE svg PUBLIC "-//W3C//DTD SVG 20010904//EN"
 "http://www.w3.org/TR/2001/REC-SVG-20010904/DTD/svg10.dtd">
<svg version="1.0" xmlns="http://www.w3.org/2000/svg"
 width="1024.000000pt" height="1024.000000pt" viewBox="0 0 1024.000000 1024.000000"
 preserveAspectRatio="xMidYMid meet">

<g transform="translate(0.000000,1024.000000) scale(0.100000,-0.100000)"
fill="#000000" stroke="none">
<path d="M5064 9060 c-42 -9 -100 -43 -499 -285 -143 -87 -296 -179 -340 -205
-44 -26 -174 -104 -290 -175 -224 -136 -553 -335 -1290 -780 -253 -152 -477
-291 -499 -308 -91 -72 -100 -198 -20 -287 59 -65 283 -144 739 -260 l150 -39
0 -138 0 -138 -75 -5 c-221 -15 -329 -178 -330 -497 0 -207 27 -337 100 -485
57 -115 126 -195 234 -274 l29 -21 -21 -109 c-12 -60 -42 -208 -67 -329 -129
-624 -134 -928 -24 -1270 31 -98 107 -257 125 -262 7 -2 14 7 17 19 4 13 21
55 38 93 l32 70 32 -130 c59 -245 164 -457 323 -655 79 -99 315 -340 391 -399
l43 -34 -4 136 c-2 76 0 137 4 137 5 0 24 -24 43 -54 102 -160 315 -386 560
-597 275 -236 446 -390 551 -496 l111 -111 114 115 c63 63 202 192 309 286
311 274 481 430 546 504 79 88 199 243 244 313 l35 55 3 -143 c1 -78 5 -142 9
-142 26 0 285 250 393 380 118 141 171 223 240 365 65 136 101 244 126 376 9
49 18 89 19 87 2 -2 19 -41 38 -88 19 -46 40 -86 46 -88 24 -8 121 222 162
386 29 114 32 146 37 317 6 277 -21 488 -134 1020 -25 115 -44 219 -42 231 2
12 30 42 68 71 81 62 129 123 186 239 67 136 94 257 101 441 6 165 -5 243 -52
349 -53 119 -164 194 -287 194 l-68 0 -2 110 c-1 61 -2 124 -2 141 l-1 32 205
52 c288 73 487 134 600 183 94 40 150 114 150 197 0 47 -28 111 -61 142 -13
12 -150 98 -304 190 -154 93 -323 195 -375 227 -52 32 -252 153 -445 269 -399
240 -993 599 -1170 707 -187 114 -567 341 -595 355 -33 16 -117 25 -156 15z
m811 -1564 c381 -31 769 -87 906 -132 25 -8 64 -30 85 -48 61 -52 71 -96 84
-351 6 -121 20 -353 30 -515 11 -162 20 -295 20 -296 0 -1 -14 -7 -31 -13 -28
-10 -32 -9 -37 12 -3 12 -26 63 -51 112 -36 72 -64 108 -136 181 -141 143
-282 214 -483 245 -45 7 -80 14 -78 17 3 2 85 18 183 35 223 40 228 43 227
135 -1 52 -8 82 -31 134 -55 119 -98 126 -323 53 -282 -91 -536 -202 -726
-316 -45 -27 -93 -49 -108 -49 -26 0 -57 34 -99 110 -9 17 -23 30 -30 28 -24
-9 -39 -80 -34 -163 8 -109 23 -153 67 -197 34 -35 43 -38 91 -38 30 0 79 7
109 15 95 25 98 22 33 -49 -67 -73 -124 -165 -155 -249 -16 -45 -25 -57 -37
-52 -53 21 -149 35 -236 35 -89 0 -129 -6 -230 -35 -17 -5 -23 2 -38 43 -28
77 -101 195 -163 261 -62 67 -59 71 36 46 125 -34 201 -11 240 71 37 75 46
214 18 287 -15 39 -29 34 -58 -19 -37 -71 -59 -94 -88 -94 -14 0 -71 27 -126
60 -181 106 -423 211 -716 307 -151 50 -219 58 -262 29 -42 -27 -80 -118 -86
-201 -7 -108 -6 -109 222 -151 105 -19 192 -37 195 -39 2 -3 -12 -5 -32 -5
-93 0 -250 -49 -357 -111 -137 -78 -285 -249 -344 -396 -13 -32 -28 -57 -33
-55 -4 2 -19 6 -32 9 -23 6 -24 8 -18 84 4 43 18 273 32 511 17 295 30 450 40
485 21 69 76 117 165 143 207 62 601 113 1070 140 232 13 1094 4 1325 -14z
m-1641 -1002 c77 -19 199 -83 263 -139 72 -63 147 -179 179 -278 23 -70 27
-99 28 -202 0 -105 -4 -129 -26 -193 -37 -104 -82 -174 -163 -257 -261 -266
-720 -237 -943 61 -193 258 -165 611 68 845 160 161 367 218 594 163z m2091
-1 c214 -52 390 -229 451 -453 24 -88 24 -254 0 -335 -31 -104 -85 -194 -166
-276 -254 -257 -659 -249 -912 19 -223 236 -224 615 -2 860 156 173 394 243
629 185z m-3344 -309 c56 -28 61 -61 50 -282 -6 -109 -13 -259 -17 -335 l-6
-139 -40 39 c-46 44 -91 131 -115 223 -21 81 -25 352 -5 416 26 87 68 112 133
78z m4377 -7 c37 -39 55 -151 49 -302 -8 -194 -52 -327 -135 -408 l-39 -38 -6
131 c-4 72 -10 231 -14 355 l-6 223 31 31 c39 39 88 42 120 8z m-2073 -260
l51 -28 12 -97 c15 -125 51 -231 114 -334 89 -144 92 -154 79 -199 -14 -46
-28 -57 -145 -103 -48 -20 -114 -51 -145 -70 -103 -63 -168 -63 -270 -2 -61
37 -95 53 -186 88 -65 25 -105 70 -105 118 0 15 25 68 57 121 100 166 136 264
149 408 6 61 11 75 30 88 49 31 108 43 209 40 87 -2 106 -6 150 -30z m-2023
-32 c-6 -52 16 -196 42 -277 67 -203 223 -376 427 -472 121 -57 185 -71 344
-71 160 0 229 16 369 86 43 22 80 39 81 37 6 -6 55 -121 53 -124 -2 -1 -43
-18 -91 -37 -235 -95 -414 -234 -613 -477 -56 -69 -122 -144 -146 -166 -85
-82 -206 -144 -279 -144 -26 0 -99 51 -99 69 0 4 23 13 50 20 28 7 83 34 123
61 77 51 159 130 141 136 -5 3 -37 20 -70 40 -190 112 -310 312 -362 604 -14
77 -17 155 -16 416 1 177 4 326 8 332 3 5 14 8 24 5 14 -3 17 -12 14 -38z
m3767 -310 c0 -132 -4 -280 -9 -330 -28 -243 -124 -462 -258 -587 -46 -43
-154 -120 -185 -131 -19 -7 59 -84 134 -133 37 -24 92 -51 123 -61 31 -9 56
-20 56 -25 0 -4 -11 -20 -24 -35 -21 -24 -31 -28 -78 -27 -114 1 -246 96 -401
289 -208 258 -412 413 -659 500 -43 15 -78 29 -78 30 0 2 14 33 31 69 31 66
36 69 70 39 9 -8 53 -29 97 -48 317 -133 674 -59 909 188 145 152 223 341 223
536 0 58 3 70 18 73 24 5 30 -55 31 -347z m-1818 -959 c46 -24 127 -56 179
-71 263 -76 430 -175 500 -299 31 -53 40 -116 17 -116 -7 0 -45 20 -84 45
-252 156 -456 212 -742 202 -130 -4 -176 -10 -273 -35 -132 -34 -247 -85 -362
-160 -118 -78 -157 -70 -111 23 37 77 149 178 261 236 49 26 154 68 234 93
112 35 230 85 296 125 1 1 39 -19 85 -43z m158 -455 c33 -9 49 -36 35 -58 -17
-27 -95 -44 -235 -50 -127 -6 -267 7 -316 30 -37 17 -28 59 17 74 38 13 455
16 499 4z m1805 -152 c17 -20 26 -43 26 -65 0 -31 -15 -51 -140 -181 l-140
-147 0 -160 -1 -161 -121 -132 c-94 -104 -126 -133 -146 -133 -31 0 -62 26
-62 52 0 10 50 74 110 143 l110 124 0 163 0 163 105 105 105 105 -6 41 c-10
70 25 114 91 114 36 0 48 -5 69 -31z m-559 -8 c76 -34 123 -116 111 -193 -8
-50 -49 -112 -92 -139 l-34 -21 0 -115 0 -116 -87 -93 c-49 -52 -103 -112
-120 -135 l-33 -40 4 -117 c3 -98 7 -124 26 -160 20 -38 21 -48 11 -82 -15
-50 -53 -80 -102 -80 -79 0 -130 83 -95 156 9 19 23 37 31 40 12 5 15 32 15
154 l0 147 120 129 119 129 1 91 0 91 -39 26 c-96 64 -117 191 -44 278 31 37
95 69 138 69 17 0 48 -9 70 -19z m-2481 -63 c13 -19 16 -60 16 -248 l0 -225
155 -155 156 -155 -3 -393 c-3 -376 -4 -394 -22 -408 -27 -19 -52 -18 -76 6
-19 19 -20 33 -20 388 l0 367 -155 155 -155 155 0 249 c0 218 2 252 17 268 23
25 68 23 87 -4z m-481 1 c130 -36 191 -215 112 -329 -16 -24 -51 -54 -77 -69
l-48 -26 0 -140 0 -140 163 -162 c135 -134 168 -162 199 -167 76 -13 110 -95
68 -164 -26 -43 -63 -57 -113 -42 -43 13 -63 39 -73 96 -5 37 -24 60 -180 215
l-174 174 0 168 0 167 -27 11 c-67 25 -132 119 -133 189 0 154 136 260 283
219z m2272 -188 c47 -22 89 -64 104 -104 34 -88 -9 -200 -91 -243 l-28 -15 0
-382 0 -382 -155 -155 -155 -155 0 -167 c0 -180 -5 -198 -55 -198 -51 0 -55
16 -55 223 l0 192 155 155 155 155 0 358 0 357 -22 9 c-31 12 -84 69 -97 104
-28 73 1 186 57 224 67 45 125 53 187 24z m-1058 -21 c10 -19 13 -128 13 -447
l0 -422 29 -16 c48 -24 83 -79 89 -136 20 -208 -243 -284 -338 -98 -41 79 -13
179 63 228 l37 24 0 426 c0 374 2 429 16 449 22 32 74 27 91 -8z m389 -274
c26 -26 34 -42 34 -70 0 -31 13 -51 90 -140 l90 -104 0 -310 0 -310 -147 -142
-148 -142 -5 -270 c-5 -267 -5 -270 -28 -288 -19 -15 -28 -17 -50 -9 -15 6
-30 16 -34 22 -4 7 -8 140 -8 297 l-1 285 150 145 150 145 4 266 4 266 -78 89
c-53 61 -88 92 -111 99 -46 14 -56 22 -74 57 -35 68 12 148 87 148 33 0 47 -6
75 -34z"/>
<path d="M4160 6170 c-16 -29 -200 -594 -200 -613 0 -20 38 -47 66 -47 11 0
28 8 36 18 9 9 60 151 113 314 94 288 97 299 81 323 -21 32 -80 35 -96 5z"/>
<path d="M3765 5988 c-157 -139 -158 -132 37 -306 51 -45 86 -53 112 -26 30
29 18 55 -58 131 l-73 74 67 57 c85 73 103 97 96 126 -4 18 -41 46 -61 46 -2
0 -56 -46 -120 -102z"/>
<path d="M4320 6053 c-19 -7 -40 -33 -40 -51 0 -8 30 -45 67 -84 l67 -69 -72
-65 c-62 -57 -72 -70 -72 -99 0 -34 20 -55 52 -55 7 0 59 43 116 96 137 128
137 130 7 248 -53 47 -99 86 -103 85 -4 0 -14 -3 -22 -6z"/>
<path d="M6232 6192 c-17 -12 -213 -601 -210 -632 4 -34 48 -58 81 -43 21 10
37 50 127 321 81 249 100 314 91 330 -16 30 -60 42 -89 24z"/>
<path d="M5834 5993 c-115 -101 -139 -132 -129 -162 7 -22 202 -201 219 -201
6 0 22 7 34 16 40 28 29 59 -50 135 l-73 70 36 32 c19 18 59 53 87 78 37 32
52 53 52 71 0 27 -27 58 -52 58 -8 0 -64 -44 -124 -97z"/>
<path d="M6366 6048 c-9 -12 -16 -29 -16 -38 0 -9 31 -47 70 -85 l70 -69 -76
-78 c-63 -64 -74 -81 -69 -100 8 -25 32 -48 51 -48 7 0 60 43 118 96 142 128
142 129 9 253 -104 96 -130 107 -157 69z"/>
<path d="M6500 3880 c-20 -20 -26 -65 -12 -86 10 -15 47 -34 66 -34 26 0 56
38 56 70 0 37 -31 70 -65 70 -14 0 -34 -9 -45 -20z"/>
<path d="M3544 3808 c-50 -24 -57 -96 -15 -139 48 -48 111 -36 137 27 12 29
12 39 0 68 -22 52 -70 70 -122 44z"/>
<path d="M5805 3625 c-30 -30 -32 -64 -4 -99 41 -52 119 -21 119 47 0 38 -7
50 -37 66 -33 17 -51 14 -78 -14z"/>
<path d="M4776 2731 c-11 -12 -16 -31 -14 -52 6 -65 93 -80 118 -20 12 30 2
66 -24 83 -21 14 -63 8 -80 -11z"/>
</g>
</svg>
